#!OML:ASF G:\JayActor3\Patient Classification 1\Patient 1\Session 2\male.ASF
:FULLY-SPECIFIED
:DEGREES
2818
root 5.11356 16.8631 -6.49988 1584.45 -95.2816 -506.638
lowerback -5.42591 -4.0427 -4.94958
upperback -3.16639 -5.21904 0.390061
thorax 0.235923 -2.58062 2.85542
lowerneck 2.45172 -13.879 -14.6348
upperneck 11.421 -19.3962 4.31761
head 4.89804 -10.103 2.55918
rclavicle -3.03147e-014 -1.19271e-015
rhumerus -60.8898 34.9314 -115.253
rradius 103.136
rwrist -15.981
rhand 8.29113 7.8468
rfingers 7.12502
rthumb 33.5038 -19.0457
lclavicle -3.03147e-014 -1.19271e-015
lhumerus -23.456 -44.5121 106.542
lradius 136.234
lwrist 34.7658
lhand -5.46447 6.43342
lfingers 7.12502
lthumb 20.3471 35.3875
rfemur -20.7516 -5.39661 29.0695
rtibia 31.6409
rfoot -15.3056 -10.6561
rtoes 26.1241
lfemur 25.7202 12.8913 -24.2565
ltibia 12.7198
lfoot 19.282 0.207307
ltoes -3.85687
2819
root 5.00593 16.865 -6.47986 1584.09 -95.1572 -506.272
lowerback -5.4207 -4.1122 -4.98982
upperback -3.17652 -5.31058 0.4247
thorax 0.237064 -2.6257 2.90728
lowerneck 2.65157 -14.0317 -14.7535
upperneck 11.3792 -19.6552 4.46594
head 4.90378 -10.2329 2.60826
rclavicle 2.23633e-014 -1.11319e-014
rhumerus -60.9789 35.2049 -115.39
rradius 103.126
rwrist -16.0071
rhand 8.28196 7.84899
rfingers 7.12502
rthumb 33.4951 -19.0454
lclavicle 2.23633e-014 -1.11319e-014
lhumerus -23.4108 -44.2912 106.31
lradius 136.215
lwrist 34.7352
lhand -5.47055 6.43478
lfingers 7.12502
lthumb 20.3412 35.3895
rfemur -20.4052 -5.43991 29.0634
rtibia 31.7919
rfoot -15.7216 -10.4586
rtoes 26.1841
lfemur 24.1859 13.1299 -23.9148
ltibia 15.8311
lfoot 20.0664 0.00305866
ltoes -2.79674
2820
root 4.89884 16.8665 -6.45861 1584.16 -94.9881 -506.36
lowerback -5.40399 -4.17314 -4.94073
upperback -3.18084 -5.39506 0.467776
thorax 0.230596 -2.66796 2.91965
lowerneck 2.8535 -14.1695 -14.8635
upperneck 11.3316 -19.8945 4.61374
head 4.90526 -10.3528 2.6583
rclavicle 2.88238e-014 7.15625e-015
rhumerus -61.0873 35.4745 -115.548
rradius 103.127
rwrist -15.9932
rhand 8.26816 7.86421
rfingers 7.12502
rthumb 33.482 -19.0331
lclavicle 2.88238e-014 7.15625e-015
lhumerus -23.4144 -44.0558 106.096
lradius 136.208
lwrist 34.7194
lhand -5.4866 6.4313
lfingers 7.12502
lthumb 20.3258 35.3877
rfemur -20.01 -5.50174 29.118
rtibia 31.897
rfoot -16.1162 -10.2497
rtoes 26.2183
lfemur 22.8402 13.3787 -23.4932
ltibia 18.6189
lfoot 21.0435 -0.191727
ltoes -1.74364
2821
root 4.79216 16.8677 -6.43643 1584.69 -94.7813 -506.931
lowerback -5.37046 -4.22691 -4.81084
upperback -3.17802 -5.47406 0.518385
thorax 0.215358 -2.70809 2.89663
lowerneck 3.04818 -14.2937 -14.9643
upperneck 11.2881 -20.114 4.75472
head 4.90626 -10.4633 2.70636
rclavicle 5.37713e-014 8.34896e-015
rhumerus -61.2116 35.7419 -115.722
rradius 103.136
rwrist -15.9524
rhand 8.25027 7.89314
rfingers 7.12502
rthumb 33.4649 -19.0078
lclavicle 5.37713e-014 8.34896e-015
lhumerus -23.4546 -43.8075 105.894
lradius 136.213
lwrist 34.7295
lhand -5.51436 6.42992
lfingers 7.12502
lthumb 20.2991 35.3891
rfemur -19.5632 -5.57757 29.2249
rtibia 31.9587
rfoot -16.4785 -10.0314
rtoes 26.2419
lfemur 21.6194 13.6288 -22.9968
ltibia 21.2097
lfoot 22.1549 -0.371708
ltoes -0.555943
2822
root 4.68627 16.8689 -6.4139 1585.62 -94.5516 -507.915
lowerback -5.31786 -4.27474 -4.62543
upperback -3.17081 -5.54823 0.573341
thorax 0.188948 -2.74613 2.84924
lowerneck 3.23668 -14.4066 -15.0548
upperneck 11.2488 -20.3167 4.88665
head 4.90642 -10.5655 2.75151
rclavicle 4.34344e-014 2.18663e-014
rhumerus -61.347 36.0019 -115.906
rradius 103.153
rwrist -15.903
rhand 8.22464 7.92198
rfingers 7.12502
rthumb 33.4406 -18.9842
lclavicle 4.34344e-014 2.18663e-014
lhumerus -23.5274 -43.5538 105.705
lradius 136.224
lwrist 34.7604
lhand -5.55956 6.4288
lfingers 7.12502
lthumb 20.2557 35.3926
rfemur -19.0779 -5.66115 29.3656
rtibia 31.986
rfoot -16.8058 -9.80765
rtoes 26.2582
lfemur 20.4745 13.8686 -22.4505
ltibia 23.6776
lfoot 23.3633 -0.550197
ltoes 0.768546
